<svg width="24" height="24" viewBox="0 0 24 24" fill="none" xmlns="http://www.w3.org/2000/svg">
<mask id="mask0_1812_649" style="mask-type:alpha" maskUnits="userSpaceOnUse" x="0" y="0" width="24" height="24">
<rect width="24" height="24" fill="#D9D9D9"/>
</mask>
<g mask="url(#mask0_1812_649)">
<path d="M6.04688 24C5.35078 24 4.75488 23.7797 4.25918 23.3391C3.76348 22.8984 3.51562 22.3688 3.51562 21.75V7.125H2.25V4.875H8.57812V3.75H16.1719V4.875H22.5V7.125H21.2344V21.75C21.2344 22.3688 20.9865 22.8984 20.4908 23.3391C19.9951 23.7797 19.3992 24 18.7031 24H6.04688ZM18.7031 7.125H6.04688V21.75H18.7031V7.125ZM8.57812 19.5H11.1094V9.375H8.57812V19.5ZM13.6406 19.5H16.1719V9.375H13.6406V19.5Z" fill="#1C1B1F"/>
</g>
</svg>
