<svg width="45" height="45" viewBox="0 0 45 45" fill="none" xmlns="http://www.w3.org/2000/svg">
<mask id="mask0_1807_632" style="mask-type:alpha" maskUnits="userSpaceOnUse" x="0" y="0" width="45" height="45">
<rect width="45" height="45" fill="#D9D9D9"/>
</mask>
<g mask="url(#mask0_1807_632)">
<path d="M9.375 39.375C8.34375 39.375 7.46094 39.0078 6.72656 38.2734C5.99219 37.5391 5.625 36.6563 5.625 35.625V9.375C5.625 8.34375 5.99219 7.46094 6.72656 6.72656C7.46094 5.99219 8.34375 5.625 9.375 5.625H20.625C21.1562 5.625 21.6016 5.80469 21.9609 6.16406C22.3203 6.52344 22.5 6.96875 22.5 7.5C22.5 8.03125 22.3203 8.47656 21.9609 8.83594C21.6016 9.19531 21.1562 9.375 20.625 9.375H9.375V35.625H20.625C21.1562 35.625 21.6016 35.8047 21.9609 36.1641C22.3203 36.5234 22.5 36.9688 22.5 37.5C22.5 38.0312 22.3203 38.4766 21.9609 38.8359C21.6016 39.1953 21.1562 39.375 20.625 39.375H9.375ZM32.2031 24.375H18.75C18.2188 24.375 17.7734 24.1953 17.4141 23.8359C17.0547 23.4766 16.875 23.0312 16.875 22.5C16.875 21.9688 17.0547 21.5234 17.4141 21.1641C17.7734 20.8047 18.2188 20.625 18.75 20.625H32.2031L28.6875 17.1094C28.3438 16.7656 28.1719 16.3438 28.1719 15.8438C28.1719 15.3438 28.3438 14.9063 28.6875 14.5312C29.0313 14.1562 29.4688 13.9609 30 13.9453C30.5312 13.9297 30.9844 14.1094 31.3594 14.4844L38.0625 21.1875C38.4375 21.5625 38.625 22 38.625 22.5C38.625 23 38.4375 23.4375 38.0625 23.8125L31.3594 30.5156C30.9844 30.8906 30.5391 31.0703 30.0234 31.0547C29.5078 31.0391 29.0625 30.8438 28.6875 30.4688C28.3438 30.0937 28.1797 29.6484 28.1953 29.1328C28.2109 28.6172 28.3906 28.1875 28.7344 27.8438L32.2031 24.375Z" fill="#1C1B1F"/>
</g>
</svg>
